M48
; DRILL file {KiCad (5.1.9-0-10_14)} date Wednesday, October 27, 2021 at 09:19:24 PM
; FORMAT={-:-/ absolute / metric / decimal}
; #@! TF.CreationDate,2021-10-27T21:19:24+01:00
; #@! TF.GenerationSoftware,Kicad,Pcbnew,(5.1.9-0-10_14)
FMAT,2
METRIC
T1C0.800
T2C1.000
T3C1.200
%
G90
G05
T1
X129.54Y-77.978
X129.54Y-106.68
X132.08Y-80.518
X132.08Y-109.22
X134.62Y-77.978
X134.62Y-106.68
T2
X127.0Y-93.726
X127.0Y-98.806
X132.08Y-93.726
X132.08Y-98.806
X137.16Y-93.726
X137.16Y-98.806
T3
X127.0Y-91.186
X127.0Y-98.806
X128.524Y-96.012
X132.0Y-91.186
X132.0Y-98.806
X132.024Y-96.012
X135.524Y-96.012
X137.0Y-91.186
X137.0Y-98.806
T0
M30
