%TF.GenerationSoftware,KiCad,Pcbnew,(5.1.9-0-10_14)*%
%TF.CreationDate,2021-10-27T21:19:31+01:00*%
%TF.ProjectId,Temp~Sensor,54656d70-7e53-4656-9e73-6f722e6b6963,rev?*%
%TF.SameCoordinates,Original*%
%TF.FileFunction,Copper,L2,Bot*%
%TF.FilePolarity,Positive*%
%FSLAX46Y46*%
G04 Gerber Fmt 4.6, Leading zero omitted, Abs format (unit mm)*
G04 Created by KiCad (PCBNEW (5.1.9-0-10_14)) date 2021-10-27 21:19:31*
%MOMM*%
%LPD*%
G01*
G04 APERTURE LIST*
%TA.AperFunction,ComponentPad*%
%ADD10C,1.520000*%
%TD*%
%TA.AperFunction,ComponentPad*%
%ADD11R,1.520000X1.520000*%
%TD*%
%TA.AperFunction,ComponentPad*%
%ADD12R,1.800000X3.600000*%
%TD*%
%TA.AperFunction,ComponentPad*%
%ADD13O,1.800000X3.600000*%
%TD*%
%TA.AperFunction,ComponentPad*%
%ADD14C,2.500000*%
%TD*%
%TA.AperFunction,ComponentPad*%
%ADD15C,2.000000*%
%TD*%
%TA.AperFunction,Conductor*%
%ADD16C,0.254000*%
%TD*%
%TA.AperFunction,Conductor*%
%ADD17C,0.100000*%
%TD*%
G04 APERTURE END LIST*
D10*
%TO.P,U2,2*%
%TO.N,Net-(D1-Pad1)*%
X132080000Y-109220000D03*
%TO.P,U2,3*%
%TO.N,Net-(J1-Pad3)*%
X134620000Y-106680000D03*
D11*
%TO.P,U2,1*%
%TO.N,Net-(J1-Pad1)*%
X129540000Y-106680000D03*
%TD*%
D10*
%TO.P,U1,2*%
%TO.N,Net-(D1-Pad1)*%
X132080000Y-80518000D03*
%TO.P,U1,3*%
%TO.N,Net-(J1-Pad3)*%
X134620000Y-77978000D03*
D11*
%TO.P,U1,1*%
%TO.N,Net-(J1-Pad1)*%
X129540000Y-77978000D03*
%TD*%
D12*
%TO.P,J1,1*%
%TO.N,Net-(J1-Pad1)*%
X128524000Y-96012000D03*
D13*
%TO.P,J1,2*%
%TO.N,Net-(D1-Pad1)*%
X132024000Y-96012000D03*
%TO.P,J1,3*%
%TO.N,Net-(J1-Pad3)*%
X135524000Y-96012000D03*
%TD*%
D14*
%TO.P,J2,3*%
%TO.N,Net-(J1-Pad3)*%
X137000000Y-98806000D03*
%TO.P,J2,2*%
%TO.N,Net-(D1-Pad1)*%
X132000000Y-98806000D03*
%TO.P,J2,1*%
%TO.N,Net-(J1-Pad1)*%
X127000000Y-98806000D03*
%TO.P,J2,3*%
%TO.N,Net-(J1-Pad3)*%
X137000000Y-91186000D03*
%TO.P,J2,2*%
%TO.N,Net-(D1-Pad1)*%
X132000000Y-91186000D03*
%TO.P,J2,1*%
%TO.N,Net-(J1-Pad1)*%
X127000000Y-91186000D03*
%TD*%
D15*
%TO.P,J3,3*%
%TO.N,Net-(J1-Pad3)*%
X137160000Y-98806000D03*
%TO.P,J3,2*%
%TO.N,Net-(D1-Pad1)*%
X132080000Y-98806000D03*
%TO.P,J3,1*%
%TO.N,Net-(J1-Pad1)*%
X127000000Y-98806000D03*
%TO.P,J3,3*%
%TO.N,Net-(J1-Pad3)*%
X137160000Y-93726000D03*
%TO.P,J3,2*%
%TO.N,Net-(D1-Pad1)*%
X132080000Y-93726000D03*
%TO.P,J3,1*%
%TO.N,Net-(J1-Pad1)*%
X127000000Y-93726000D03*
%TD*%
D16*
%TO.N,Net-(J1-Pad1)*%
X144120001Y-111100000D02*
X120040000Y-111100000D01*
X120040000Y-109082604D01*
X130685000Y-109082604D01*
X130685000Y-109357396D01*
X130738609Y-109626907D01*
X130843767Y-109880780D01*
X130996433Y-110109261D01*
X131190739Y-110303567D01*
X131419220Y-110456233D01*
X131673093Y-110561391D01*
X131942604Y-110615000D01*
X132217396Y-110615000D01*
X132486907Y-110561391D01*
X132740780Y-110456233D01*
X132969261Y-110303567D01*
X133163567Y-110109261D01*
X133316233Y-109880780D01*
X133421391Y-109626907D01*
X133475000Y-109357396D01*
X133475000Y-109082604D01*
X133421391Y-108813093D01*
X133316233Y-108559220D01*
X133163567Y-108330739D01*
X132969261Y-108136433D01*
X132740780Y-107983767D01*
X132486907Y-107878609D01*
X132217396Y-107825000D01*
X131942604Y-107825000D01*
X131673093Y-107878609D01*
X131419220Y-107983767D01*
X131190739Y-108136433D01*
X130996433Y-108330739D01*
X130843767Y-108559220D01*
X130738609Y-108813093D01*
X130685000Y-109082604D01*
X120040000Y-109082604D01*
X120040000Y-107440000D01*
X128141928Y-107440000D01*
X128154188Y-107564482D01*
X128190498Y-107684180D01*
X128249463Y-107794494D01*
X128328815Y-107891185D01*
X128425506Y-107970537D01*
X128535820Y-108029502D01*
X128655518Y-108065812D01*
X128780000Y-108078072D01*
X129254250Y-108075000D01*
X129413000Y-107916250D01*
X129413000Y-106807000D01*
X129667000Y-106807000D01*
X129667000Y-107916250D01*
X129825750Y-108075000D01*
X130300000Y-108078072D01*
X130424482Y-108065812D01*
X130544180Y-108029502D01*
X130654494Y-107970537D01*
X130751185Y-107891185D01*
X130830537Y-107794494D01*
X130889502Y-107684180D01*
X130925812Y-107564482D01*
X130938072Y-107440000D01*
X130935000Y-106965750D01*
X130776250Y-106807000D01*
X129667000Y-106807000D01*
X129413000Y-106807000D01*
X128303750Y-106807000D01*
X128145000Y-106965750D01*
X128141928Y-107440000D01*
X120040000Y-107440000D01*
X120040000Y-105920000D01*
X128141928Y-105920000D01*
X128145000Y-106394250D01*
X128303750Y-106553000D01*
X129413000Y-106553000D01*
X129413000Y-105443750D01*
X129667000Y-105443750D01*
X129667000Y-106553000D01*
X130776250Y-106553000D01*
X130786646Y-106542604D01*
X133225000Y-106542604D01*
X133225000Y-106817396D01*
X133278609Y-107086907D01*
X133383767Y-107340780D01*
X133536433Y-107569261D01*
X133730739Y-107763567D01*
X133959220Y-107916233D01*
X134213093Y-108021391D01*
X134482604Y-108075000D01*
X134757396Y-108075000D01*
X135026907Y-108021391D01*
X135280780Y-107916233D01*
X135509261Y-107763567D01*
X135703567Y-107569261D01*
X135856233Y-107340780D01*
X135961391Y-107086907D01*
X136015000Y-106817396D01*
X136015000Y-106542604D01*
X135961391Y-106273093D01*
X135856233Y-106019220D01*
X135703567Y-105790739D01*
X135509261Y-105596433D01*
X135280780Y-105443767D01*
X135026907Y-105338609D01*
X134757396Y-105285000D01*
X134482604Y-105285000D01*
X134213093Y-105338609D01*
X133959220Y-105443767D01*
X133730739Y-105596433D01*
X133536433Y-105790739D01*
X133383767Y-106019220D01*
X133278609Y-106273093D01*
X133225000Y-106542604D01*
X130786646Y-106542604D01*
X130935000Y-106394250D01*
X130938072Y-105920000D01*
X130925812Y-105795518D01*
X130889502Y-105675820D01*
X130830537Y-105565506D01*
X130751185Y-105468815D01*
X130654494Y-105389463D01*
X130544180Y-105330498D01*
X130424482Y-105294188D01*
X130300000Y-105281928D01*
X129825750Y-105285000D01*
X129667000Y-105443750D01*
X129413000Y-105443750D01*
X129254250Y-105285000D01*
X128780000Y-105281928D01*
X128655518Y-105294188D01*
X128535820Y-105330498D01*
X128425506Y-105389463D01*
X128328815Y-105468815D01*
X128249463Y-105565506D01*
X128190498Y-105675820D01*
X128154188Y-105795518D01*
X128141928Y-105920000D01*
X120040000Y-105920000D01*
X120040000Y-100119605D01*
X125866000Y-100119605D01*
X125991914Y-100409577D01*
X126324126Y-100575433D01*
X126682312Y-100673290D01*
X127052706Y-100699389D01*
X127421075Y-100652725D01*
X127773262Y-100535094D01*
X128008086Y-100409577D01*
X128134000Y-100119605D01*
X127000000Y-98985605D01*
X125866000Y-100119605D01*
X120040000Y-100119605D01*
X120040000Y-98858706D01*
X125106611Y-98858706D01*
X125153275Y-99227075D01*
X125270906Y-99579262D01*
X125396423Y-99814086D01*
X125686395Y-99940000D01*
X126820395Y-98806000D01*
X125686395Y-97672000D01*
X125396423Y-97797914D01*
X125230567Y-98130126D01*
X125132710Y-98488312D01*
X125106611Y-98858706D01*
X120040000Y-98858706D01*
X120040000Y-97492395D01*
X125866000Y-97492395D01*
X127000000Y-98626395D01*
X127014143Y-98612253D01*
X127193748Y-98791858D01*
X127179605Y-98806000D01*
X128313605Y-99940000D01*
X128603577Y-99814086D01*
X128769433Y-99481874D01*
X128867290Y-99123688D01*
X128893389Y-98753294D01*
X128854617Y-98447224D01*
X129424000Y-98450072D01*
X129548482Y-98437812D01*
X129668180Y-98401502D01*
X129778494Y-98342537D01*
X129875185Y-98263185D01*
X129954537Y-98166494D01*
X130013502Y-98056180D01*
X130049812Y-97936482D01*
X130062072Y-97812000D01*
X130059000Y-96297750D01*
X129900250Y-96139000D01*
X128651000Y-96139000D01*
X128651000Y-96159000D01*
X128397000Y-96159000D01*
X128397000Y-96139000D01*
X127147750Y-96139000D01*
X126989000Y-96297750D01*
X126987747Y-96915461D01*
X126947294Y-96912611D01*
X126578925Y-96959275D01*
X126226738Y-97076906D01*
X125991914Y-97202423D01*
X125866000Y-97492395D01*
X120040000Y-97492395D01*
X120040000Y-94861413D01*
X126044192Y-94861413D01*
X126139956Y-95125814D01*
X126429571Y-95266704D01*
X126741108Y-95348384D01*
X126988264Y-95363248D01*
X126989000Y-95726250D01*
X127147750Y-95885000D01*
X128397000Y-95885000D01*
X128397000Y-95865000D01*
X128651000Y-95865000D01*
X128651000Y-95885000D01*
X129900250Y-95885000D01*
X130059000Y-95726250D01*
X130062072Y-94212000D01*
X130049812Y-94087518D01*
X130013502Y-93967820D01*
X129954537Y-93857506D01*
X129875185Y-93760815D01*
X129778494Y-93681463D01*
X129668180Y-93622498D01*
X129548482Y-93586188D01*
X129424000Y-93573928D01*
X128809750Y-93577000D01*
X128651002Y-93735748D01*
X128651002Y-93577000D01*
X128629869Y-93577000D01*
X128597961Y-93344325D01*
X128492795Y-93039912D01*
X128399814Y-92865956D01*
X128135413Y-92770192D01*
X127179605Y-93726000D01*
X127193748Y-93740143D01*
X127174265Y-93759625D01*
X127172815Y-93760815D01*
X127171625Y-93762265D01*
X127014143Y-93919748D01*
X127000000Y-93905605D01*
X126044192Y-94861413D01*
X120040000Y-94861413D01*
X120040000Y-93788595D01*
X125358282Y-93788595D01*
X125402039Y-94107675D01*
X125507205Y-94412088D01*
X125600186Y-94586044D01*
X125864587Y-94681808D01*
X126820395Y-93726000D01*
X125864587Y-92770192D01*
X125600186Y-92865956D01*
X125459296Y-93155571D01*
X125377616Y-93467108D01*
X125358282Y-93788595D01*
X120040000Y-93788595D01*
X120040000Y-92499605D01*
X125866000Y-92499605D01*
X125991914Y-92789577D01*
X126324126Y-92955433D01*
X126440956Y-92987351D01*
X127000000Y-93546395D01*
X127560107Y-92986288D01*
X127773262Y-92915094D01*
X128008086Y-92789577D01*
X128134000Y-92499605D01*
X127000000Y-91365605D01*
X125866000Y-92499605D01*
X120040000Y-92499605D01*
X120040000Y-91238706D01*
X125106611Y-91238706D01*
X125153275Y-91607075D01*
X125270906Y-91959262D01*
X125396423Y-92194086D01*
X125686395Y-92320000D01*
X126820395Y-91186000D01*
X127179605Y-91186000D01*
X128313605Y-92320000D01*
X128603577Y-92194086D01*
X128769433Y-91861874D01*
X128867290Y-91503688D01*
X128893389Y-91133294D01*
X128876548Y-91000344D01*
X130115000Y-91000344D01*
X130115000Y-91371656D01*
X130187439Y-91735834D01*
X130329534Y-92078882D01*
X130535825Y-92387618D01*
X130798382Y-92650175D01*
X130825480Y-92668281D01*
X130810013Y-92683748D01*
X130631082Y-92951537D01*
X130507832Y-93249088D01*
X130445000Y-93564967D01*
X130445000Y-93887033D01*
X130507832Y-94202912D01*
X130622033Y-94478617D01*
X130598983Y-94521740D01*
X130511210Y-94811088D01*
X130489000Y-95036593D01*
X130489000Y-96987408D01*
X130511211Y-97212913D01*
X130598984Y-97502261D01*
X130612556Y-97527651D01*
X130535825Y-97604382D01*
X130329534Y-97913118D01*
X130187439Y-98256166D01*
X130115000Y-98620344D01*
X130115000Y-98991656D01*
X130187439Y-99355834D01*
X130329534Y-99698882D01*
X130535825Y-100007618D01*
X130798382Y-100270175D01*
X131107118Y-100476466D01*
X131450166Y-100618561D01*
X131814344Y-100691000D01*
X132185656Y-100691000D01*
X132549834Y-100618561D01*
X132892882Y-100476466D01*
X133201618Y-100270175D01*
X133464175Y-100007618D01*
X133670466Y-99698882D01*
X133812561Y-99355834D01*
X133885000Y-98991656D01*
X133885000Y-98620344D01*
X133812561Y-98256166D01*
X133670466Y-97913118D01*
X133464175Y-97604382D01*
X133418725Y-97558932D01*
X133449017Y-97502261D01*
X133536790Y-97212913D01*
X133559000Y-96987408D01*
X133559000Y-95036593D01*
X133989000Y-95036593D01*
X133989000Y-96987408D01*
X134011211Y-97212913D01*
X134098984Y-97502261D01*
X134241520Y-97768927D01*
X134433340Y-98002661D01*
X134667074Y-98194481D01*
X134933740Y-98337017D01*
X135157835Y-98404996D01*
X135115000Y-98620344D01*
X135115000Y-98991656D01*
X135187439Y-99355834D01*
X135329534Y-99698882D01*
X135535825Y-100007618D01*
X135798382Y-100270175D01*
X136107118Y-100476466D01*
X136450166Y-100618561D01*
X136814344Y-100691000D01*
X137185656Y-100691000D01*
X137549834Y-100618561D01*
X137892882Y-100476466D01*
X138201618Y-100270175D01*
X138464175Y-100007618D01*
X138670466Y-99698882D01*
X138812561Y-99355834D01*
X138885000Y-98991656D01*
X138885000Y-98620344D01*
X138812561Y-98256166D01*
X138670466Y-97913118D01*
X138464175Y-97604382D01*
X138201618Y-97341825D01*
X137892882Y-97135534D01*
X137549834Y-96993439D01*
X137185656Y-96921000D01*
X137059000Y-96921000D01*
X137059000Y-95361000D01*
X137321033Y-95361000D01*
X137636912Y-95298168D01*
X137934463Y-95174918D01*
X138202252Y-94995987D01*
X138429987Y-94768252D01*
X138608918Y-94500463D01*
X138732168Y-94202912D01*
X138795000Y-93887033D01*
X138795000Y-93564967D01*
X138732168Y-93249088D01*
X138608918Y-92951537D01*
X138429987Y-92683748D01*
X138299016Y-92552777D01*
X138464175Y-92387618D01*
X138670466Y-92078882D01*
X138812561Y-91735834D01*
X138885000Y-91371656D01*
X138885000Y-91000344D01*
X138812561Y-90636166D01*
X138670466Y-90293118D01*
X138464175Y-89984382D01*
X138201618Y-89721825D01*
X137892882Y-89515534D01*
X137549834Y-89373439D01*
X137185656Y-89301000D01*
X136814344Y-89301000D01*
X136450166Y-89373439D01*
X136107118Y-89515534D01*
X135798382Y-89721825D01*
X135535825Y-89984382D01*
X135329534Y-90293118D01*
X135187439Y-90636166D01*
X135115000Y-91000344D01*
X135115000Y-91371656D01*
X135187439Y-91735834D01*
X135329534Y-92078882D01*
X135535825Y-92387618D01*
X135798382Y-92650175D01*
X135877239Y-92702866D01*
X135711082Y-92951537D01*
X135587832Y-93249088D01*
X135525000Y-93564967D01*
X135525000Y-93569671D01*
X135524000Y-93569573D01*
X135223087Y-93599210D01*
X134933739Y-93686983D01*
X134667073Y-93829519D01*
X134433339Y-94021339D01*
X134241519Y-94255074D01*
X134098983Y-94521740D01*
X134011210Y-94811088D01*
X133989000Y-95036593D01*
X133559000Y-95036593D01*
X133559000Y-95036592D01*
X133536790Y-94811087D01*
X133469526Y-94589349D01*
X133528918Y-94500463D01*
X133652168Y-94202912D01*
X133715000Y-93887033D01*
X133715000Y-93564967D01*
X133652168Y-93249088D01*
X133528918Y-92951537D01*
X133349987Y-92683748D01*
X133259016Y-92592777D01*
X133464175Y-92387618D01*
X133670466Y-92078882D01*
X133812561Y-91735834D01*
X133885000Y-91371656D01*
X133885000Y-91000344D01*
X133812561Y-90636166D01*
X133670466Y-90293118D01*
X133464175Y-89984382D01*
X133201618Y-89721825D01*
X132892882Y-89515534D01*
X132549834Y-89373439D01*
X132185656Y-89301000D01*
X131814344Y-89301000D01*
X131450166Y-89373439D01*
X131107118Y-89515534D01*
X130798382Y-89721825D01*
X130535825Y-89984382D01*
X130329534Y-90293118D01*
X130187439Y-90636166D01*
X130115000Y-91000344D01*
X128876548Y-91000344D01*
X128846725Y-90764925D01*
X128729094Y-90412738D01*
X128603577Y-90177914D01*
X128313605Y-90052000D01*
X127179605Y-91186000D01*
X126820395Y-91186000D01*
X125686395Y-90052000D01*
X125396423Y-90177914D01*
X125230567Y-90510126D01*
X125132710Y-90868312D01*
X125106611Y-91238706D01*
X120040000Y-91238706D01*
X120040000Y-89872395D01*
X125866000Y-89872395D01*
X127000000Y-91006395D01*
X128134000Y-89872395D01*
X128008086Y-89582423D01*
X127675874Y-89416567D01*
X127317688Y-89318710D01*
X126947294Y-89292611D01*
X126578925Y-89339275D01*
X126226738Y-89456906D01*
X125991914Y-89582423D01*
X125866000Y-89872395D01*
X120040000Y-89872395D01*
X120040000Y-80380604D01*
X130685000Y-80380604D01*
X130685000Y-80655396D01*
X130738609Y-80924907D01*
X130843767Y-81178780D01*
X130996433Y-81407261D01*
X131190739Y-81601567D01*
X131419220Y-81754233D01*
X131673093Y-81859391D01*
X131942604Y-81913000D01*
X132217396Y-81913000D01*
X132486907Y-81859391D01*
X132740780Y-81754233D01*
X132969261Y-81601567D01*
X133163567Y-81407261D01*
X133316233Y-81178780D01*
X133421391Y-80924907D01*
X133475000Y-80655396D01*
X133475000Y-80380604D01*
X133421391Y-80111093D01*
X133316233Y-79857220D01*
X133163567Y-79628739D01*
X132969261Y-79434433D01*
X132740780Y-79281767D01*
X132486907Y-79176609D01*
X132217396Y-79123000D01*
X131942604Y-79123000D01*
X131673093Y-79176609D01*
X131419220Y-79281767D01*
X131190739Y-79434433D01*
X130996433Y-79628739D01*
X130843767Y-79857220D01*
X130738609Y-80111093D01*
X130685000Y-80380604D01*
X120040000Y-80380604D01*
X120040000Y-78738000D01*
X128141928Y-78738000D01*
X128154188Y-78862482D01*
X128190498Y-78982180D01*
X128249463Y-79092494D01*
X128328815Y-79189185D01*
X128425506Y-79268537D01*
X128535820Y-79327502D01*
X128655518Y-79363812D01*
X128780000Y-79376072D01*
X129254250Y-79373000D01*
X129413000Y-79214250D01*
X129413000Y-78105000D01*
X129667000Y-78105000D01*
X129667000Y-79214250D01*
X129825750Y-79373000D01*
X130300000Y-79376072D01*
X130424482Y-79363812D01*
X130544180Y-79327502D01*
X130654494Y-79268537D01*
X130751185Y-79189185D01*
X130830537Y-79092494D01*
X130889502Y-78982180D01*
X130925812Y-78862482D01*
X130938072Y-78738000D01*
X130935000Y-78263750D01*
X130776250Y-78105000D01*
X129667000Y-78105000D01*
X129413000Y-78105000D01*
X128303750Y-78105000D01*
X128145000Y-78263750D01*
X128141928Y-78738000D01*
X120040000Y-78738000D01*
X120040000Y-77218000D01*
X128141928Y-77218000D01*
X128145000Y-77692250D01*
X128303750Y-77851000D01*
X129413000Y-77851000D01*
X129413000Y-76741750D01*
X129667000Y-76741750D01*
X129667000Y-77851000D01*
X130776250Y-77851000D01*
X130786646Y-77840604D01*
X133225000Y-77840604D01*
X133225000Y-78115396D01*
X133278609Y-78384907D01*
X133383767Y-78638780D01*
X133536433Y-78867261D01*
X133730739Y-79061567D01*
X133959220Y-79214233D01*
X134213093Y-79319391D01*
X134482604Y-79373000D01*
X134757396Y-79373000D01*
X135026907Y-79319391D01*
X135280780Y-79214233D01*
X135509261Y-79061567D01*
X135703567Y-78867261D01*
X135856233Y-78638780D01*
X135961391Y-78384907D01*
X136015000Y-78115396D01*
X136015000Y-77840604D01*
X135961391Y-77571093D01*
X135856233Y-77317220D01*
X135703567Y-77088739D01*
X135509261Y-76894433D01*
X135280780Y-76741767D01*
X135026907Y-76636609D01*
X134757396Y-76583000D01*
X134482604Y-76583000D01*
X134213093Y-76636609D01*
X133959220Y-76741767D01*
X133730739Y-76894433D01*
X133536433Y-77088739D01*
X133383767Y-77317220D01*
X133278609Y-77571093D01*
X133225000Y-77840604D01*
X130786646Y-77840604D01*
X130935000Y-77692250D01*
X130938072Y-77218000D01*
X130925812Y-77093518D01*
X130889502Y-76973820D01*
X130830537Y-76863506D01*
X130751185Y-76766815D01*
X130654494Y-76687463D01*
X130544180Y-76628498D01*
X130424482Y-76592188D01*
X130300000Y-76579928D01*
X129825750Y-76583000D01*
X129667000Y-76741750D01*
X129413000Y-76741750D01*
X129254250Y-76583000D01*
X128780000Y-76579928D01*
X128655518Y-76592188D01*
X128535820Y-76628498D01*
X128425506Y-76687463D01*
X128328815Y-76766815D01*
X128249463Y-76863506D01*
X128190498Y-76973820D01*
X128154188Y-77093518D01*
X128141928Y-77218000D01*
X120040000Y-77218000D01*
X120040000Y-74320000D01*
X144120000Y-74320000D01*
X144120001Y-111100000D01*
%TA.AperFunction,Conductor*%
D17*
G36*
X144120001Y-111100000D02*
G01*
X120040000Y-111100000D01*
X120040000Y-109082604D01*
X130685000Y-109082604D01*
X130685000Y-109357396D01*
X130738609Y-109626907D01*
X130843767Y-109880780D01*
X130996433Y-110109261D01*
X131190739Y-110303567D01*
X131419220Y-110456233D01*
X131673093Y-110561391D01*
X131942604Y-110615000D01*
X132217396Y-110615000D01*
X132486907Y-110561391D01*
X132740780Y-110456233D01*
X132969261Y-110303567D01*
X133163567Y-110109261D01*
X133316233Y-109880780D01*
X133421391Y-109626907D01*
X133475000Y-109357396D01*
X133475000Y-109082604D01*
X133421391Y-108813093D01*
X133316233Y-108559220D01*
X133163567Y-108330739D01*
X132969261Y-108136433D01*
X132740780Y-107983767D01*
X132486907Y-107878609D01*
X132217396Y-107825000D01*
X131942604Y-107825000D01*
X131673093Y-107878609D01*
X131419220Y-107983767D01*
X131190739Y-108136433D01*
X130996433Y-108330739D01*
X130843767Y-108559220D01*
X130738609Y-108813093D01*
X130685000Y-109082604D01*
X120040000Y-109082604D01*
X120040000Y-107440000D01*
X128141928Y-107440000D01*
X128154188Y-107564482D01*
X128190498Y-107684180D01*
X128249463Y-107794494D01*
X128328815Y-107891185D01*
X128425506Y-107970537D01*
X128535820Y-108029502D01*
X128655518Y-108065812D01*
X128780000Y-108078072D01*
X129254250Y-108075000D01*
X129413000Y-107916250D01*
X129413000Y-106807000D01*
X129667000Y-106807000D01*
X129667000Y-107916250D01*
X129825750Y-108075000D01*
X130300000Y-108078072D01*
X130424482Y-108065812D01*
X130544180Y-108029502D01*
X130654494Y-107970537D01*
X130751185Y-107891185D01*
X130830537Y-107794494D01*
X130889502Y-107684180D01*
X130925812Y-107564482D01*
X130938072Y-107440000D01*
X130935000Y-106965750D01*
X130776250Y-106807000D01*
X129667000Y-106807000D01*
X129413000Y-106807000D01*
X128303750Y-106807000D01*
X128145000Y-106965750D01*
X128141928Y-107440000D01*
X120040000Y-107440000D01*
X120040000Y-105920000D01*
X128141928Y-105920000D01*
X128145000Y-106394250D01*
X128303750Y-106553000D01*
X129413000Y-106553000D01*
X129413000Y-105443750D01*
X129667000Y-105443750D01*
X129667000Y-106553000D01*
X130776250Y-106553000D01*
X130786646Y-106542604D01*
X133225000Y-106542604D01*
X133225000Y-106817396D01*
X133278609Y-107086907D01*
X133383767Y-107340780D01*
X133536433Y-107569261D01*
X133730739Y-107763567D01*
X133959220Y-107916233D01*
X134213093Y-108021391D01*
X134482604Y-108075000D01*
X134757396Y-108075000D01*
X135026907Y-108021391D01*
X135280780Y-107916233D01*
X135509261Y-107763567D01*
X135703567Y-107569261D01*
X135856233Y-107340780D01*
X135961391Y-107086907D01*
X136015000Y-106817396D01*
X136015000Y-106542604D01*
X135961391Y-106273093D01*
X135856233Y-106019220D01*
X135703567Y-105790739D01*
X135509261Y-105596433D01*
X135280780Y-105443767D01*
X135026907Y-105338609D01*
X134757396Y-105285000D01*
X134482604Y-105285000D01*
X134213093Y-105338609D01*
X133959220Y-105443767D01*
X133730739Y-105596433D01*
X133536433Y-105790739D01*
X133383767Y-106019220D01*
X133278609Y-106273093D01*
X133225000Y-106542604D01*
X130786646Y-106542604D01*
X130935000Y-106394250D01*
X130938072Y-105920000D01*
X130925812Y-105795518D01*
X130889502Y-105675820D01*
X130830537Y-105565506D01*
X130751185Y-105468815D01*
X130654494Y-105389463D01*
X130544180Y-105330498D01*
X130424482Y-105294188D01*
X130300000Y-105281928D01*
X129825750Y-105285000D01*
X129667000Y-105443750D01*
X129413000Y-105443750D01*
X129254250Y-105285000D01*
X128780000Y-105281928D01*
X128655518Y-105294188D01*
X128535820Y-105330498D01*
X128425506Y-105389463D01*
X128328815Y-105468815D01*
X128249463Y-105565506D01*
X128190498Y-105675820D01*
X128154188Y-105795518D01*
X128141928Y-105920000D01*
X120040000Y-105920000D01*
X120040000Y-100119605D01*
X125866000Y-100119605D01*
X125991914Y-100409577D01*
X126324126Y-100575433D01*
X126682312Y-100673290D01*
X127052706Y-100699389D01*
X127421075Y-100652725D01*
X127773262Y-100535094D01*
X128008086Y-100409577D01*
X128134000Y-100119605D01*
X127000000Y-98985605D01*
X125866000Y-100119605D01*
X120040000Y-100119605D01*
X120040000Y-98858706D01*
X125106611Y-98858706D01*
X125153275Y-99227075D01*
X125270906Y-99579262D01*
X125396423Y-99814086D01*
X125686395Y-99940000D01*
X126820395Y-98806000D01*
X125686395Y-97672000D01*
X125396423Y-97797914D01*
X125230567Y-98130126D01*
X125132710Y-98488312D01*
X125106611Y-98858706D01*
X120040000Y-98858706D01*
X120040000Y-97492395D01*
X125866000Y-97492395D01*
X127000000Y-98626395D01*
X127014143Y-98612253D01*
X127193748Y-98791858D01*
X127179605Y-98806000D01*
X128313605Y-99940000D01*
X128603577Y-99814086D01*
X128769433Y-99481874D01*
X128867290Y-99123688D01*
X128893389Y-98753294D01*
X128854617Y-98447224D01*
X129424000Y-98450072D01*
X129548482Y-98437812D01*
X129668180Y-98401502D01*
X129778494Y-98342537D01*
X129875185Y-98263185D01*
X129954537Y-98166494D01*
X130013502Y-98056180D01*
X130049812Y-97936482D01*
X130062072Y-97812000D01*
X130059000Y-96297750D01*
X129900250Y-96139000D01*
X128651000Y-96139000D01*
X128651000Y-96159000D01*
X128397000Y-96159000D01*
X128397000Y-96139000D01*
X127147750Y-96139000D01*
X126989000Y-96297750D01*
X126987747Y-96915461D01*
X126947294Y-96912611D01*
X126578925Y-96959275D01*
X126226738Y-97076906D01*
X125991914Y-97202423D01*
X125866000Y-97492395D01*
X120040000Y-97492395D01*
X120040000Y-94861413D01*
X126044192Y-94861413D01*
X126139956Y-95125814D01*
X126429571Y-95266704D01*
X126741108Y-95348384D01*
X126988264Y-95363248D01*
X126989000Y-95726250D01*
X127147750Y-95885000D01*
X128397000Y-95885000D01*
X128397000Y-95865000D01*
X128651000Y-95865000D01*
X128651000Y-95885000D01*
X129900250Y-95885000D01*
X130059000Y-95726250D01*
X130062072Y-94212000D01*
X130049812Y-94087518D01*
X130013502Y-93967820D01*
X129954537Y-93857506D01*
X129875185Y-93760815D01*
X129778494Y-93681463D01*
X129668180Y-93622498D01*
X129548482Y-93586188D01*
X129424000Y-93573928D01*
X128809750Y-93577000D01*
X128651002Y-93735748D01*
X128651002Y-93577000D01*
X128629869Y-93577000D01*
X128597961Y-93344325D01*
X128492795Y-93039912D01*
X128399814Y-92865956D01*
X128135413Y-92770192D01*
X127179605Y-93726000D01*
X127193748Y-93740143D01*
X127174265Y-93759625D01*
X127172815Y-93760815D01*
X127171625Y-93762265D01*
X127014143Y-93919748D01*
X127000000Y-93905605D01*
X126044192Y-94861413D01*
X120040000Y-94861413D01*
X120040000Y-93788595D01*
X125358282Y-93788595D01*
X125402039Y-94107675D01*
X125507205Y-94412088D01*
X125600186Y-94586044D01*
X125864587Y-94681808D01*
X126820395Y-93726000D01*
X125864587Y-92770192D01*
X125600186Y-92865956D01*
X125459296Y-93155571D01*
X125377616Y-93467108D01*
X125358282Y-93788595D01*
X120040000Y-93788595D01*
X120040000Y-92499605D01*
X125866000Y-92499605D01*
X125991914Y-92789577D01*
X126324126Y-92955433D01*
X126440956Y-92987351D01*
X127000000Y-93546395D01*
X127560107Y-92986288D01*
X127773262Y-92915094D01*
X128008086Y-92789577D01*
X128134000Y-92499605D01*
X127000000Y-91365605D01*
X125866000Y-92499605D01*
X120040000Y-92499605D01*
X120040000Y-91238706D01*
X125106611Y-91238706D01*
X125153275Y-91607075D01*
X125270906Y-91959262D01*
X125396423Y-92194086D01*
X125686395Y-92320000D01*
X126820395Y-91186000D01*
X127179605Y-91186000D01*
X128313605Y-92320000D01*
X128603577Y-92194086D01*
X128769433Y-91861874D01*
X128867290Y-91503688D01*
X128893389Y-91133294D01*
X128876548Y-91000344D01*
X130115000Y-91000344D01*
X130115000Y-91371656D01*
X130187439Y-91735834D01*
X130329534Y-92078882D01*
X130535825Y-92387618D01*
X130798382Y-92650175D01*
X130825480Y-92668281D01*
X130810013Y-92683748D01*
X130631082Y-92951537D01*
X130507832Y-93249088D01*
X130445000Y-93564967D01*
X130445000Y-93887033D01*
X130507832Y-94202912D01*
X130622033Y-94478617D01*
X130598983Y-94521740D01*
X130511210Y-94811088D01*
X130489000Y-95036593D01*
X130489000Y-96987408D01*
X130511211Y-97212913D01*
X130598984Y-97502261D01*
X130612556Y-97527651D01*
X130535825Y-97604382D01*
X130329534Y-97913118D01*
X130187439Y-98256166D01*
X130115000Y-98620344D01*
X130115000Y-98991656D01*
X130187439Y-99355834D01*
X130329534Y-99698882D01*
X130535825Y-100007618D01*
X130798382Y-100270175D01*
X131107118Y-100476466D01*
X131450166Y-100618561D01*
X131814344Y-100691000D01*
X132185656Y-100691000D01*
X132549834Y-100618561D01*
X132892882Y-100476466D01*
X133201618Y-100270175D01*
X133464175Y-100007618D01*
X133670466Y-99698882D01*
X133812561Y-99355834D01*
X133885000Y-98991656D01*
X133885000Y-98620344D01*
X133812561Y-98256166D01*
X133670466Y-97913118D01*
X133464175Y-97604382D01*
X133418725Y-97558932D01*
X133449017Y-97502261D01*
X133536790Y-97212913D01*
X133559000Y-96987408D01*
X133559000Y-95036593D01*
X133989000Y-95036593D01*
X133989000Y-96987408D01*
X134011211Y-97212913D01*
X134098984Y-97502261D01*
X134241520Y-97768927D01*
X134433340Y-98002661D01*
X134667074Y-98194481D01*
X134933740Y-98337017D01*
X135157835Y-98404996D01*
X135115000Y-98620344D01*
X135115000Y-98991656D01*
X135187439Y-99355834D01*
X135329534Y-99698882D01*
X135535825Y-100007618D01*
X135798382Y-100270175D01*
X136107118Y-100476466D01*
X136450166Y-100618561D01*
X136814344Y-100691000D01*
X137185656Y-100691000D01*
X137549834Y-100618561D01*
X137892882Y-100476466D01*
X138201618Y-100270175D01*
X138464175Y-100007618D01*
X138670466Y-99698882D01*
X138812561Y-99355834D01*
X138885000Y-98991656D01*
X138885000Y-98620344D01*
X138812561Y-98256166D01*
X138670466Y-97913118D01*
X138464175Y-97604382D01*
X138201618Y-97341825D01*
X137892882Y-97135534D01*
X137549834Y-96993439D01*
X137185656Y-96921000D01*
X137059000Y-96921000D01*
X137059000Y-95361000D01*
X137321033Y-95361000D01*
X137636912Y-95298168D01*
X137934463Y-95174918D01*
X138202252Y-94995987D01*
X138429987Y-94768252D01*
X138608918Y-94500463D01*
X138732168Y-94202912D01*
X138795000Y-93887033D01*
X138795000Y-93564967D01*
X138732168Y-93249088D01*
X138608918Y-92951537D01*
X138429987Y-92683748D01*
X138299016Y-92552777D01*
X138464175Y-92387618D01*
X138670466Y-92078882D01*
X138812561Y-91735834D01*
X138885000Y-91371656D01*
X138885000Y-91000344D01*
X138812561Y-90636166D01*
X138670466Y-90293118D01*
X138464175Y-89984382D01*
X138201618Y-89721825D01*
X137892882Y-89515534D01*
X137549834Y-89373439D01*
X137185656Y-89301000D01*
X136814344Y-89301000D01*
X136450166Y-89373439D01*
X136107118Y-89515534D01*
X135798382Y-89721825D01*
X135535825Y-89984382D01*
X135329534Y-90293118D01*
X135187439Y-90636166D01*
X135115000Y-91000344D01*
X135115000Y-91371656D01*
X135187439Y-91735834D01*
X135329534Y-92078882D01*
X135535825Y-92387618D01*
X135798382Y-92650175D01*
X135877239Y-92702866D01*
X135711082Y-92951537D01*
X135587832Y-93249088D01*
X135525000Y-93564967D01*
X135525000Y-93569671D01*
X135524000Y-93569573D01*
X135223087Y-93599210D01*
X134933739Y-93686983D01*
X134667073Y-93829519D01*
X134433339Y-94021339D01*
X134241519Y-94255074D01*
X134098983Y-94521740D01*
X134011210Y-94811088D01*
X133989000Y-95036593D01*
X133559000Y-95036593D01*
X133559000Y-95036592D01*
X133536790Y-94811087D01*
X133469526Y-94589349D01*
X133528918Y-94500463D01*
X133652168Y-94202912D01*
X133715000Y-93887033D01*
X133715000Y-93564967D01*
X133652168Y-93249088D01*
X133528918Y-92951537D01*
X133349987Y-92683748D01*
X133259016Y-92592777D01*
X133464175Y-92387618D01*
X133670466Y-92078882D01*
X133812561Y-91735834D01*
X133885000Y-91371656D01*
X133885000Y-91000344D01*
X133812561Y-90636166D01*
X133670466Y-90293118D01*
X133464175Y-89984382D01*
X133201618Y-89721825D01*
X132892882Y-89515534D01*
X132549834Y-89373439D01*
X132185656Y-89301000D01*
X131814344Y-89301000D01*
X131450166Y-89373439D01*
X131107118Y-89515534D01*
X130798382Y-89721825D01*
X130535825Y-89984382D01*
X130329534Y-90293118D01*
X130187439Y-90636166D01*
X130115000Y-91000344D01*
X128876548Y-91000344D01*
X128846725Y-90764925D01*
X128729094Y-90412738D01*
X128603577Y-90177914D01*
X128313605Y-90052000D01*
X127179605Y-91186000D01*
X126820395Y-91186000D01*
X125686395Y-90052000D01*
X125396423Y-90177914D01*
X125230567Y-90510126D01*
X125132710Y-90868312D01*
X125106611Y-91238706D01*
X120040000Y-91238706D01*
X120040000Y-89872395D01*
X125866000Y-89872395D01*
X127000000Y-91006395D01*
X128134000Y-89872395D01*
X128008086Y-89582423D01*
X127675874Y-89416567D01*
X127317688Y-89318710D01*
X126947294Y-89292611D01*
X126578925Y-89339275D01*
X126226738Y-89456906D01*
X125991914Y-89582423D01*
X125866000Y-89872395D01*
X120040000Y-89872395D01*
X120040000Y-80380604D01*
X130685000Y-80380604D01*
X130685000Y-80655396D01*
X130738609Y-80924907D01*
X130843767Y-81178780D01*
X130996433Y-81407261D01*
X131190739Y-81601567D01*
X131419220Y-81754233D01*
X131673093Y-81859391D01*
X131942604Y-81913000D01*
X132217396Y-81913000D01*
X132486907Y-81859391D01*
X132740780Y-81754233D01*
X132969261Y-81601567D01*
X133163567Y-81407261D01*
X133316233Y-81178780D01*
X133421391Y-80924907D01*
X133475000Y-80655396D01*
X133475000Y-80380604D01*
X133421391Y-80111093D01*
X133316233Y-79857220D01*
X133163567Y-79628739D01*
X132969261Y-79434433D01*
X132740780Y-79281767D01*
X132486907Y-79176609D01*
X132217396Y-79123000D01*
X131942604Y-79123000D01*
X131673093Y-79176609D01*
X131419220Y-79281767D01*
X131190739Y-79434433D01*
X130996433Y-79628739D01*
X130843767Y-79857220D01*
X130738609Y-80111093D01*
X130685000Y-80380604D01*
X120040000Y-80380604D01*
X120040000Y-78738000D01*
X128141928Y-78738000D01*
X128154188Y-78862482D01*
X128190498Y-78982180D01*
X128249463Y-79092494D01*
X128328815Y-79189185D01*
X128425506Y-79268537D01*
X128535820Y-79327502D01*
X128655518Y-79363812D01*
X128780000Y-79376072D01*
X129254250Y-79373000D01*
X129413000Y-79214250D01*
X129413000Y-78105000D01*
X129667000Y-78105000D01*
X129667000Y-79214250D01*
X129825750Y-79373000D01*
X130300000Y-79376072D01*
X130424482Y-79363812D01*
X130544180Y-79327502D01*
X130654494Y-79268537D01*
X130751185Y-79189185D01*
X130830537Y-79092494D01*
X130889502Y-78982180D01*
X130925812Y-78862482D01*
X130938072Y-78738000D01*
X130935000Y-78263750D01*
X130776250Y-78105000D01*
X129667000Y-78105000D01*
X129413000Y-78105000D01*
X128303750Y-78105000D01*
X128145000Y-78263750D01*
X128141928Y-78738000D01*
X120040000Y-78738000D01*
X120040000Y-77218000D01*
X128141928Y-77218000D01*
X128145000Y-77692250D01*
X128303750Y-77851000D01*
X129413000Y-77851000D01*
X129413000Y-76741750D01*
X129667000Y-76741750D01*
X129667000Y-77851000D01*
X130776250Y-77851000D01*
X130786646Y-77840604D01*
X133225000Y-77840604D01*
X133225000Y-78115396D01*
X133278609Y-78384907D01*
X133383767Y-78638780D01*
X133536433Y-78867261D01*
X133730739Y-79061567D01*
X133959220Y-79214233D01*
X134213093Y-79319391D01*
X134482604Y-79373000D01*
X134757396Y-79373000D01*
X135026907Y-79319391D01*
X135280780Y-79214233D01*
X135509261Y-79061567D01*
X135703567Y-78867261D01*
X135856233Y-78638780D01*
X135961391Y-78384907D01*
X136015000Y-78115396D01*
X136015000Y-77840604D01*
X135961391Y-77571093D01*
X135856233Y-77317220D01*
X135703567Y-77088739D01*
X135509261Y-76894433D01*
X135280780Y-76741767D01*
X135026907Y-76636609D01*
X134757396Y-76583000D01*
X134482604Y-76583000D01*
X134213093Y-76636609D01*
X133959220Y-76741767D01*
X133730739Y-76894433D01*
X133536433Y-77088739D01*
X133383767Y-77317220D01*
X133278609Y-77571093D01*
X133225000Y-77840604D01*
X130786646Y-77840604D01*
X130935000Y-77692250D01*
X130938072Y-77218000D01*
X130925812Y-77093518D01*
X130889502Y-76973820D01*
X130830537Y-76863506D01*
X130751185Y-76766815D01*
X130654494Y-76687463D01*
X130544180Y-76628498D01*
X130424482Y-76592188D01*
X130300000Y-76579928D01*
X129825750Y-76583000D01*
X129667000Y-76741750D01*
X129413000Y-76741750D01*
X129254250Y-76583000D01*
X128780000Y-76579928D01*
X128655518Y-76592188D01*
X128535820Y-76628498D01*
X128425506Y-76687463D01*
X128328815Y-76766815D01*
X128249463Y-76863506D01*
X128190498Y-76973820D01*
X128154188Y-77093518D01*
X128141928Y-77218000D01*
X120040000Y-77218000D01*
X120040000Y-74320000D01*
X144120000Y-74320000D01*
X144120001Y-111100000D01*
G37*
%TD.AperFunction*%
%TD*%
M02*
